<?xml version="1.0" encoding="UTF-8" standalone="no"?>
<!-- Uploaded to: SVG Repo, www.svgrepo.com, Generator: SVG Repo Mixer Tools -->

<svg
   width="32"
   height="32"
   viewBox="0 0 1.92 1.92"
   fill="none"
   version="1.1"
   id="svg12"
   sodipodi:docname="logo_32x32.svg"
   inkscape:version="1.1.2 (0a00cf5339, 2022-02-04)"
   xmlns:inkscape="http://www.inkscape.org/namespaces/inkscape"
   xmlns:sodipodi="http://sodipodi.sourceforge.net/DTD/sodipodi-0.dtd"
   xmlns="http://www.w3.org/2000/svg"
   xmlns:svg="http://www.w3.org/2000/svg">
  <defs
     id="defs16" />
  <sodipodi:namedview
     id="namedview14"
     pagecolor="#ffffff"
     bordercolor="#666666"
     borderopacity="1.0"
     inkscape:pageshadow="2"
     inkscape:pageopacity="0.0"
     inkscape:pagecheckerboard="0"
     showgrid="false"
     inkscape:zoom="5.9679812"
     inkscape:cx="21.61535"
     inkscape:cy="23.039617"
     inkscape:window-width="1559"
     inkscape:window-height="752"
     inkscape:window-x="1075"
     inkscape:window-y="216"
     inkscape:window-maximized="0"
     inkscape:current-layer="svg12" />
  <rect
     width="1.92"
     height="1.92"
     fill="#ffffff"
     fill-opacity="0.01"
     id="rect2"
     x="-5.5511151e-17"
     y="0"
     style="stroke-width:0.04" />
  <path
     d="m 0.96000012,1.76 c 0.44182798,0 0.79999998,-0.358172 0.79999998,-0.8 0,-0.441828 -0.358172,-0.8 -0.79999998,-0.8 -0.44182808,0 -0.80000011,0.358172 -0.80000011,0.8 0,0.441828 0.35817203,0.8 0.80000011,0.8 z"
     fill="#2f88ff"
     stroke="#000000"
     stroke-width="0.16"
     stroke-linejoin="round"
     id="path4" />
  <path
     d="m 1.2400001,1.24 c 0,0 -0.08,0.16 -0.27999998,0.16 C 0.76000008,1.4 0.68000007,1.24 0.68000007,1.24"
     stroke="#ffffff"
     stroke-width="0.16"
     stroke-linecap="round"
     stroke-linejoin="round"
     id="path6" />
  <path
     d="m 0.84000007,0.84 c 0,0 -0.04,-0.16 -0.16,-0.16 -0.12000002,0 -0.16000002,0.16 -0.16000002,0.16"
     stroke="#ffffff"
     stroke-width="0.16"
     stroke-linecap="round"
     stroke-linejoin="round"
     id="path8" />
  <path
     d="m 1.4000001,0.84 c 0,0 -0.039999,-0.16 -0.16,-0.16 -0.12,0 -0.16,0.16 -0.16,0.16"
     stroke="#ffffff"
     stroke-width="0.16"
     stroke-linecap="round"
     stroke-linejoin="round"
     id="path10" />
</svg>
